<svg id="svg" xmlns="http://www.w3.org/2000/svg" viewBox="0 0 412.99 281.12"><defs><style>.cls-1,.cls-2{fill:none;stroke-miterlimit:10;}.cls-1{stroke:#1c1c1c;stroke-width:4px;}.cls-2{stroke:red;stroke-width:3px;}</style></defs><title>logotype</title><path class="cls-1" d="M120.74,638.2a44.68,44.68,0,0,1,22.11-13,45.44,45.44,0,0,1,19.84,0c11,2.45,11.15,6.87,22.68,9.07a50.21,50.21,0,0,0,18.14,0A40.13,40.13,0,0,0,215,630.39a35.58,35.58,0,0,0,6.1-4.09c10.64-8.92,14.5-23.33,11.93-36.72-2.26-11.78-13.45-13.61-19.8-3.54-5.32,8.43-6.41,18.77-4,28.35.82,3.33,5.27,21.28,18.14,24.38,6.78,1.64,12.94-1.56,17.58-4,6.65-3.45,10.48-8,14.17-12.47a73.7,73.7,0,0,0,11.91-21c3.29-8.8,4-15.48,5.1-26.07a112.19,112.19,0,0,0,.36-14.55,134.81,134.81,0,0,0-.71-14.21c-.57-4.34-1.48-9.95-5.32-12.63-5.15-3.59-11.17-1.73-14.34,3.38-2.8,4.52-3.74,10.22-4.69,15.37-1,5.64-1.72,11.34-2.21,17.05-.7,8.24-1.36,16.59-.87,24.86.36,6.13.71,12.09,3.4,19.28,2,5.43,4.54,12.1,11.34,17a25.72,25.72,0,0,0,16.58,4.92c5.18-.33,10.12-2.58,14.55-5.14,5.83-3.37,11.74-7.31,16.08-12.54,4.77-5.73,6.69-12.46,8.35-19.55a150.62,150.62,0,0,0,3.55-27.33c.41-8.85.76-18.06-.39-26.86-.55-4.21-2-8.11-5.2-11-2.87-2.56-7.05-4.12-10.1-.92-5.16,5.42-7.67,12.8-9.69,19.86a100,100,0,0,0-3.92,21.12c-.67,11.06,1.4,22.13,4.2,32.78,2.24,8.54,5.22,17.23,12,23.29a26.89,26.89,0,0,0,6.56,4.34c8.44,4,17.31,2.1,25.11-2.43,10.72-6.23,16.85-17.52,18.37-29.58.64-5.06,1.28-10.94.15-16-1.49-6.66-8.22-8.6-14-5.61-3.71,1.93-5.61,5-7.4,8.63-4.77,9.66-5.54,23.48-1.13,33.45a24.23,24.23,0,0,0,11.34,11.91c13.22,6.27,29.35-2.25,38.09-12.28,6.33-7.26,10.34-16.06,14.63-24.57,2.61-5.18,5.11-10.42,7.56-15.67.83-1.79,1.66-3.59,2.47-5.38.14-.3.64-1,.62-1.34-.06-1-1.86-2.09-2.45-3a4.4,4.4,0,0,1-.71-3.47c.56-2,2.49-3,4-4.24,4.12-3.28,5-9.79,6.65-14.52,1.05-3,2.24-6,3.1-9.14a5.93,5.93,0,0,0-.05-4,5.86,5.86,0,0,0-1.65-2c-.7-.6-3.36-1.24-3.67-1.83-.44-.84,4-3.55,4.6-4.26a17.72,17.72,0,0,0,3-7c5.66-21.76,7.81-44.77,9.73-67.13.85-9.78,1.47-19.57,1.92-29.37.34-7.33.76-17,1.14-28.35" transform="translate(-91.1 -360.09)"/><path class="cls-1" d="M394.57,634.24a40.87,40.87,0,0,1,1.7-9.07,54.25,54.25,0,0,1,4-9.08,78.7,78.7,0,0,1,6.23-10.77,45.42,45.42,0,0,1,11.91-11.9,41.9,41.9,0,0,1,18.71-6.81,36.35,36.35,0,0,1,17.57,2.27,36,36,0,0,1,12.47,8.51c3.3,3.33,5,6.38,8.51,12.47A81.32,81.32,0,0,1,483,625.73a72.93,72.93,0,0,1,2.83,11.91" transform="translate(-91.1 -360.09)"/><path class="cls-1" d="M502.28,635.94c-8-17.23-16.25-34.64-27.13-50.28-1.64-2.37-3.87-4.61-4.34-7.55-.49-3.12.88-6.15,2.16-8.9a1.33,1.33,0,0,0,.18-.88,1.42,1.42,0,0,0-.44-.57c-3.21-2.89-7.52-5.71-9.12-9.9-.94-2.47-.8-5.3-1.33-7.87a50.56,50.56,0,0,0-1.83-6.61c-.67-1.9-2.08-4.13-1.37-6.21.82-2.41,5.06-2.85,5.14-5.55,0-.83-.54-1.44-1.41-2.36-1.81-1.92-4.71-2.36-6.31-4.51-2-2.63-2.07-6.55-2.42-9.67-.58-5.07-1.56-10.08-2.28-15.14-1.8-12.67-2.85-25.43-4.33-38.13-1.78-15.32-2.88-30.73-3.17-46.15,0-2.64-.07-5.27-.07-7.91v-4c0-.71,0-1.27,0-2.38a6.65,6.65,0,0,1,.15-1.73,2.72,2.72,0,0,1,2-2.27c1-.39,1.44.09,1.91-.25.31-.22.42-.6.42-2.83,0-1.43,0-1.9,0-3.19s.05-1.29,0-2.41c0-.5,0-.48-.17-3.12-.1-1.54-.11-1.77-.32-2.09-.43-.64-.87-.46-1.92-1.21-6.14-4.41-4.87-14-5.2-20.51a12.58,12.58,0,0,1,0-1.52" transform="translate(-91.1 -360.09)"/><path class="cls-1" d="M427.78,559.92c-.27-1,.05-1.65.34-3.11a17.81,17.81,0,0,0,.37-3.31s.36-3.28,1-8c.65-4.92.93-6.35,2.08-7.74a7,7,0,0,1,3.16-2.32,9.48,9.48,0,0,1,2-.38,21.81,21.81,0,0,1,3.3,0c1.47,0,1.54.08,3.74.19,2.66.13,3,.1,3.54.42a5.27,5.27,0,0,1,1.84,2.27,15.08,15.08,0,0,1,1.51,4,30.29,30.29,0,0,1,.62,4.39c.23,2.25.14,2.13.33,3.87.27,2.46.46,2.77.66,5.06a29.21,29.21,0,0,1,.09,3.31c-.05,2.11-.3,2.7-.56,3.11a4.49,4.49,0,0,1-2,1.52,7.27,7.27,0,0,1-1.47.42,15.23,15.23,0,0,1-3.45.24c-.78,0-3.19-.1-5.29,0-2.32.06-2.38.23-3.87.14-.25,0,0,0-3.59-.52a5.46,5.46,0,0,1-1.8-.47,4.91,4.91,0,0,1-1.51-1.13A4.42,4.42,0,0,1,427.78,559.92Z" transform="translate(-91.1 -360.09)"/><path class="cls-2" d="M92.72,634.61c-.16-.12-.16-.33,0-.65a55.06,55.06,0,0,0,3.59-5.45c.93-1.84,1.46-3.91,2.38-5.75,6.73-16.8,6.65-34.74,9.39-52.37.29-1.89.65-4.24,1.34-7.16,3.73-15.82,13.24-34.57,31.14-37.06a29.54,29.54,0,0,1,22.22,6A31.64,31.64,0,0,1,173.63,549c1.94,7.51.8,14.84-2.26,21.91a58.13,58.13,0,0,1-4.27,8c-.58.92-4.75,5.72-4.12,6.6s7.77-1.7,8.92-1.84a22.1,22.1,0,0,1,11.36,1.59c6.87,3,11.14,8.91,12.67,16.05a28.85,28.85,0,0,1-2.3,19.34c-6.49,12.44-21.58,16.78-34.73,16.38-9.89-.3-19-3.7-28.26-6.84a34.42,34.42,0,0,0-16.36-1,89.41,89.41,0,0,0-15.91,4.48C97.78,633.93,93.46,635.23,92.72,634.61Z" transform="translate(-91.1 -360.09)"/></svg>
